# xmcd CD database file
#
# Track frame offsets:
#	150
#	11884
#	23111
#	41167
#	61019
#	77958
#	91138
#	108340
#	122870
#	139185
#	152859
#	168720
#	181835
#
# Disc length: 2628 seconds
#
# Revision: 0
# Processed by: cddbd v1.5.2PL0 Copyright (c) Steve Scherf et al.
# Submitted via: CDex 1.51
#
DISCID=aa0a420d
DTITLE=HoneyRiders - HoneyRiders
DYEAR=2006
DGENRE=Jazz
TTITLE0=Colour
TTITLE1=Falling
TTITLE2=Fading Away
TTITLE3=Yes, its over
TTITLE4=Strange Winds Blow
TTITLE5=After You've Gone
TTITLE6=Free
TTITLE7=Hi-Lo
TTITLE8=Ain't Misbehaving
TTITLE9=Drifting Away
TTITLE10=I Wanted to Love yOU
TTITLE11=Dream a Little Dream of Me
TTITLE12=Don't Cry in the Storrm
EXTD=YEAR: 2006
EXTT0=
EXTT1=
EXTT2=
EXTT3=
EXTT4=
EXTT5=
EXTT6=
EXTT7=
EXTT8=
EXTT9=
EXTT10=
EXTT11=
EXTT12=
PLAYORDER=
